<svg width="465" height="107" xmlns="http://www.w3.org/2000/svg"><path d="M226.65 60.35c0-1.1-.1-2.4-.3-3.9-.2-1.5-.55-2.9-1.05-4.2-.5-1.3-1.25-2.4-2.25-3.3-1-.9-2.35-1.35-4.05-1.35-2.8 0-5.075 1.275-6.825 3.825-1.75 2.55-3.125 5.55-4.125 9s-1.65 7-1.95 10.65c-.3 3.65-.45 6.525-.45 8.625 0 1.6.075 3.525.225 5.775.15 2.25.425 4.375.825 6.375.4 2 .975 3.7 1.725 5.1.75 1.4 1.725 2.1 2.925 2.1 2.9 0 5.125-1.125 6.675-3.375 1.55-2.25 2.725-5.05 3.525-8.4.8-3.35 1.375-6.95 1.725-10.8.35-3.85.675-7.375.975-10.575.2-1.7.65-2.775 1.35-3.225.7-.45 1.05-.775 1.05-.975v-1.35zM63 11.3c-.1.1-.225.35-.375.75s-.225 1.1-.225 2.1c0 1.4.2 2.75.6 4.05v49.65c0 5.1-.5 10-1.5 14.7-1 4.7-2.725 8.875-5.175 12.525-2.45 3.65-5.8 6.55-10.05 8.7C42.025 105.925 36.6 107 30 107h-1.95c-5.7 0-10.325-.775-13.875-2.325-3.55-1.55-6.325-3.525-8.325-5.925-2-2.4-3.35-5.025-4.05-7.875C1.1 88.025.75 85.3.75 82.7c0-2.2.275-4.325.825-6.375.55-2.05 1.35-3.85 2.4-5.4 1.05-1.55 2.325-2.8 3.825-3.75 1.5-.95 3.2-1.425 5.1-1.425 1.8 0 2.95.475 3.45 1.425.5.95.75 1.925.75 2.925 0 2.2-.45 4.025-1.35 5.475-.9 1.45-1.875 2.725-2.925 3.825-1.05 1.1-2.025 2.2-2.925 3.3-.9 1.1-1.35 2.45-1.35 4.05 0 4.8 1.6 8.25 4.8 10.35 3.2 2.1 7.2 3.15 12 3.15 4.2 0 7.85-.85 10.95-2.55 3.1-1.7 5.675-3.85 7.725-6.45s3.575-5.425 4.575-8.475 1.5-5.925 1.5-8.625l-2.25.15c-3.6 0-6.725-.825-9.375-2.475-2.65-1.65-4.85-3.725-6.6-6.225a27.55 27.55 0 0 1-3.9-8.1c-.85-2.9-1.275-5.6-1.275-8.1v-5.25c0-1.9.25-4.125.75-6.675s1.2-5.2 2.1-7.95c.9-2.75 2-5.45 3.3-8.1 1.3-2.65 2.7-5.025 4.2-7.125 1.5-2.1 3.1-3.8 4.8-5.1 1.7-1.3 3.45-1.95 5.25-1.95.7 0 1.5.15 2.4.45l10.5.75c.7.1 1.375.35 2.025.75.65.4.975 1.1.975 2.1zm-12.9 18c.2-.8.4-1.55.6-2.25.2-.7.3-1.5.3-2.4 0-1.3-.325-2.475-.975-3.525-.65-1.05-1.825-1.575-3.525-1.575-2.2 0-4 .9-5.4 2.7-1.4 1.8-2.475 3.95-3.225 6.45S36.6 33.8 36.3 36.5c-.3 2.7-.45 4.9-.45 6.6 0 1.3.1 3.175.3 5.625.2 2.45.675 4.875 1.425 7.275.75 2.4 1.8 4.5 3.15 6.3C42.075 64.1 43.9 65 46.2 65c.2 0 .775-.05 1.725-.15.95-.1 1.675-.25 2.175-.45V29.3zm47.25 39c-1.5 2.1-2.725 4.425-3.675 6.975-.95 2.55-1.775 5.2-2.475 7.95a96.81 96.81 0 0 0-1.725 8.25c-.45 2.75-.925 5.375-1.425 7.875-.2.6-.975 1-2.325 1.2-1.35.2-2.325.3-2.925.3-1.8 0-3.275-.1-4.425-.3-1.15-.2-2.025-.675-2.625-1.425-.6-.75-1.05-1.9-1.35-3.45-.3-1.55-.55-3.625-.75-6.225L75.6 44.9c0-1.3.7-1.95 2.1-1.95.5 0 1.2.075 2.1.225.9.15 1.85.375 2.85.675 1 .3 1.85.675 2.55 1.125.7.45 1.05.975 1.05 1.575V77c.1-.1.25-.5.45-1.2.7-1.8 1.55-4.025 2.55-6.675 1-2.65 2.1-5.175 3.3-7.575 1.2-2.4 2.475-4.45 3.825-6.15 1.35-1.7 2.725-2.55 4.125-2.55 1.8 0 3.175.425 4.125 1.275.95.85 1.675 1.925 2.175 3.225.5 1.3.8 2.7.9 4.2.1 1.5.15 2.95.15 4.35 0 1-.1 2.65-.3 4.95-.2 2.3-.3 5.75-.3 10.35 0 2.6.25 4.95.75 7.05.5 2.1 1.5 3.15 3 3.15 1.1 0 2.1-.5 3-1.5.9-1 1.725-2.25 2.475-3.75s1.375-3.1 1.875-4.8c.5-1.7.8-3.3.9-4.8.1-1.9.85-2.85 2.25-2.85.9 0 1.5.3 1.8.9.3.6.45 1.3.45 2.1v.3c-.1 2-.475 4.25-1.125 6.75s-1.6 4.85-2.85 7.05a17.93 17.93 0 0 1-4.875 5.55c-2 1.5-4.45 2.25-7.35 2.25-4.5 0-7.375-1.625-8.625-4.875S97.05 85.65 97.05 79.25l.3-10.95zm58.5 23.4c0 2.4-.8 4.25-2.4 5.55-1.6 1.3-3.425 2.25-5.475 2.85-2.05.6-4.1.975-6.15 1.125-2.05.15-3.525.225-4.425.225-1.4 0-3.125-.15-5.175-.45a34.93 34.93 0 0 1-6-1.425c-1.95-.65-3.6-1.575-4.95-2.775s-2.025-2.7-2.025-4.5c0-1.1.425-1.875 1.275-2.325.85-.45 1.675-.675 2.475-.675 1.1 0 2.175.4 3.225 1.2 1.05.8 2.15 1.65 3.3 2.55 1.15.9 2.425 1.75 3.825 2.55 1.4.8 3 1.2 4.8 1.2.8 0 1.875-.275 3.225-.825 1.35-.55 2.025-1.525 2.025-2.925s-.575-2.75-1.725-4.05c-1.15-1.3-2.6-2.65-4.35-4.05-1.75-1.4-3.625-2.85-5.625-4.35-2-1.5-3.875-3.125-5.625-4.875a25.386 25.386 0 0 1-4.35-5.775c-1.15-2.1-1.725-4.4-1.725-6.9 0-3.5 1.125-6.45 3.375-8.85 2.25-2.4 4.9-4.3 7.95-5.7 3.05-1.4 6.175-2.4 9.375-3 3.2-.6 5.7-.9 7.5-.9 1.7 0 3.4.35 5.1 1.05 1.7.7 2.55 2.05 2.55 4.05 0 .6-.125 1.475-.375 2.625s-.65 2.275-1.2 3.375a10.38 10.38 0 0 1-2.175 2.925c-.9.85-2.05 1.275-3.45 1.275-.4 0-.8-.175-1.2-.525-.4-.35-.85-.75-1.35-1.2-.5-.45-1.025-.85-1.575-1.2s-1.175-.525-1.875-.525c-3.5 0-5.95 1.025-7.35 3.075-1.4 2.05-2.1 4.225-2.1 6.525 0 2 1.175 4.1 3.525 6.3 2.35 2.2 4.95 4.4 7.8 6.6 2.85 2.2 5.45 4.375 7.8 6.525 2.35 2.15 3.525 4.225 3.525 6.225zm96.83-1.593a28.452 28.452 0 0 1-2.855 4.968c-1.25 1.75-2.7 3.225-4.35 4.425-1.65 1.2-3.475 1.8-5.475 1.8-3 0-5.625-1.15-7.875-3.45-2.25-2.3-3.625-5.55-4.125-9.75-.6 1.6-1.3 3.45-2.1 5.55-.8 2.1-1.8 4.05-3 5.85-1.2 1.8-2.575 3.325-4.125 4.575-1.55 1.25-3.375 1.875-5.475 1.875-.6 0-1.05-.05-1.35-.15-.3-.1-.625-.225-.975-.375s-.75-.275-1.2-.375c-.45-.1-1.075-.15-1.875-.15-2.4 0-4.425-.775-6.075-2.325-1.65-1.55-2.975-3.525-3.975-5.925a33.238 33.238 0 0 1-1.867-6.168c-.5 1.29-1.053 2.57-1.658 3.843-1.45 3.05-3.225 5.725-5.325 8.025-2.1 2.3-4.55 3.45-7.35 3.45-2.7 0-5.05-.775-7.05-2.325-2-1.55-3.675-3.7-5.025-6.45-1.35-2.75-2.375-6-3.075-9.75-.7-3.75-1.05-7.775-1.05-12.075v-1.35c.1-5.1.25-10.3.45-15.6.2-5.3.4-10.2.6-14.7 0-.8-.8-1.35-2.4-1.65-1.6-.3-3.4-.6-5.4-.9-2-.3-3.8-.775-5.4-1.425-1.6-.65-2.4-1.725-2.4-3.225 0-1.3 1.3-2.05 3.9-2.25 2.6-.2 6.45-.3 11.55-.3.4 0 .675-.6.825-1.8.15-1.2.25-2.725.3-4.575.05-1.85.1-3.825.15-5.925.05-2.1.125-4.075.225-5.925.1-1.85.275-3.375.525-4.575.25-1.2.575-1.8.975-1.8.5 0 1.4.1 2.7.3 1.3.2 2.65.475 4.05.825s2.625.775 3.675 1.275c1.05.5 1.575 1.05 1.575 1.65l-1.65 19.5c0 .6.525 1.025 1.575 1.275 1.05.25 2.4.4 4.05.45 1.65.05 3.4.075 5.25.075s3.6.15 5.25.45c1.65.3 3 .775 4.05 1.425 1.05.65 1.575 1.625 1.575 2.925 0 .2-.1.525-.3.975-.2.45-.45.675-.75.675-.2 0-.475-.15-.825-.45-.35-.3-1.275-.45-2.775-.45-.4 0-1.5.05-3.3.15-1.8.1-3.7.25-5.7.45s-3.825.425-5.475.675c-1.65.25-2.575.575-2.775.975-.1.2-.225 1.375-.375 3.525s-.3 4.975-.45 8.475c-.15 3.5-.275 7.525-.375 12.075-.1 4.55-.15 9.325-.15 14.325 0 1.9.1 3.75.3 5.55.2 1.8.5 3.425.9 4.875.4 1.45.925 2.625 1.575 3.525.65.9 1.425 1.35 2.325 1.35 1.3 0 2.5-.55 3.6-1.65 1.1-1.1 2.1-2.6 3-4.5.9-1.9 1.7-4.05 2.4-6.45.7-2.4 1.3-4.85 1.8-7.35.3-1.5.65-2.575 1.05-3.225.016-.026.032-.052.05-.077.16-3.14.419-6.189.775-9.148.65-5.4 1.725-10.175 3.225-14.325 1.5-4.15 3.45-7.45 5.85-9.9 2.4-2.45 5.3-3.675 8.7-3.675 2 0 3.525.175 4.575.525 1.05.35 2.025.75 2.925 1.2.9.45 1.875.925 2.925 1.425 1.05.5 2.525.9 4.425 1.2 2.1 1.2 3.575 2.625 4.425 4.275.85 1.65 1.4 3.425 1.65 5.325.25 1.9.325 3.875.225 5.925s0 4.075.3 6.075c0 .1.225.25.675.45.45.2.975.425 1.575.675.6.25 1.125.6 1.575 1.05.45.45.675 1.025.675 1.725v.6c-1 2.6-1.6 4.9-1.8 6.9-.2 2-.3 4.4-.3 7.2 0 1.4.075 2.925.225 4.575.15 1.65.4 3.2.75 4.65.35 1.45.875 2.65 1.575 3.6.7.95 1.6 1.425 2.7 1.425 1.2 0 2.275-.6 3.225-1.8.95-1.2 1.75-2.575 2.4-4.125.65-1.55 1.2-3.125 1.65-4.725a46.13 46.13 0 0 0 .524-2.012 45.531 45.531 0 0 1-.299-5.338c0-4 .525-8.2 1.575-12.6 1.05-4.4 3.175-8.4 6.375-12 2.8-3.2 6.075-5.75 9.825-7.65 3.75-1.9 7.575-2.85 11.475-2.85 1.9 0 3.625.275 5.175.825 1.55.55 2.425 1.225 2.625 2.025.2 1.1.325 2.475.375 4.125.05 1.65.075 3.825.075 6.525 0 2.3-.175 4-.525 5.1-.35 1.1-1.075 1.65-2.175 1.65-1.2-.1-2.05-.725-2.55-1.875s-1-2.4-1.5-3.75-1.15-2.6-1.95-3.75-2.1-1.775-3.9-1.875c-2.6 0-4.75 1-6.45 3-1.7 2-3.025 4.35-3.975 7.05-.95 2.7-1.6 5.4-1.95 8.1-.35 2.7-.525 4.8-.525 6.3 0 5.8.875 10.775 2.625 14.925s4.875 6.425 9.375 6.825l1.65.15c3.1 0 5.6-.775 7.5-2.325 1.9-1.55 3.425-3.25 4.575-5.1 1.15-1.85 2.05-3.55 2.7-5.1.65-1.55 1.325-2.325 2.025-2.325h.45c1.3.1 1.95.95 1.95 2.55 0 .7-.25 1.7-.75 3-2.4 5.7-5.475 9.825-9.225 12.375-3.75 2.55-8.175 3.825-13.275 3.825h-1.425c-.45 0-.925-.05-1.425-.15-2.5-.3-4.9-1.075-7.2-2.325-2.3-1.25-4.3-3-6-5.25-1.268-1.678-2.341-3.634-3.22-5.868zm72.67 6.543c0 1.2-.425 2.25-1.275 3.15-.85.9-1.9 1.7-3.15 2.4s-2.55 1.225-3.9 1.575c-1.35.35-2.475.525-3.375.525-1.7 0-3.575-.175-5.625-.525-2.05-.35-3.775-1.075-5.175-2.175-1.6-1.3-2.925-3.375-3.975-6.225-1.05-2.85-1.85-6.25-2.4-10.2-.55-3.95-.925-8.35-1.125-13.2-.2-4.85-.3-9.925-.3-15.225 0-2.2.075-4.65.225-7.35.15-2.7.325-5.525.525-8.475.2-2.95.45-5.9.75-8.85.3-2.95.6-5.775.9-8.475.3-1.9.65-3.95 1.05-6.15s.825-4.3 1.275-6.3c.45-2 .975-3.8 1.575-5.4.6-1.6 1.25-2.75 1.95-3.45.8-.8 1.875-1.325 3.225-1.575S309.1.35 310.2.35c2.3 0 4.15.6 5.55 1.8 1.4 1.2 2.475 2.825 3.225 4.875s1.25 4.4 1.5 7.05c.25 2.65.375 5.475.375 8.475 0 4.6-.15 9.575-.45 14.925-.3 5.35-.925 10.725-1.875 16.125s-2.3 10.65-4.05 15.75S310.4 79.1 307.5 83.3a79 79 0 0 0 .525 4.875c.25 1.85.625 3.575 1.125 5.175.5 1.6 1.15 2.95 1.95 4.05.8 1.1 1.85 1.65 3.15 1.65 1.2 0 2.15-.275 2.85-.825.7-.55 1.325-1.175 1.875-1.875s1.1-1.325 1.65-1.875c.55-.55 1.275-.825 2.175-.825 1 0 1.675.3 2.025.9.35.6.525 1.3.525 2.1zm-11.25-70.5c0-1-.025-2.2-.075-3.6-.05-1.4-.2-2.775-.45-4.125s-.575-2.5-.975-3.45c-.4-.95-.95-1.425-1.65-1.425-1 0-1.8 1.4-2.4 4.2-.6 2.8-1.075 6.475-1.425 11.025-.35 4.55-.6 9.7-.75 15.45a670.15 670.15 0 0 0-.225 17.475v5.325c0 1.85.1 3.475.3 4.875 3.3-7.9 5.4-15.55 6.3-22.95.9-7.4 1.35-15 1.35-22.8zM357.9 71a117.156 117.156 0 0 0-.375-7.65c-.15-1.9-.4-3.875-.75-5.925s-.85-3.925-1.5-5.625c-.65-1.7-1.475-3.125-2.475-4.275-1-1.15-2.25-1.725-3.75-1.725s-2.95.6-4.35 1.8c-1.4 1.2-2.65 2.75-3.75 4.65-1.1 1.9-1.975 4.05-2.625 6.45-.65 2.4-.975 4.75-.975 7.05 0 4 .8 6.925 2.4 8.775 1.6 1.85 4.35 2.775 8.25 2.775 2.9 0 5.275-.45 7.125-1.35 1.85-.9 2.775-1.6 2.775-2.1V71zm-.75 12.3c-1.2.8-2.85 1.4-4.95 1.8-2.1.4-3.85.6-5.25.6-2.7 0-4.775-.2-6.225-.6-1.45-.4-3.025-1.2-4.725-2.4l-.15 3.15c0 1.1.15 2.25.45 3.45.3 1.2.775 2.3 1.425 3.3s1.575 1.825 2.775 2.475c1.2.65 2.7.975 4.5.975 2.2 0 4.075-.425 5.625-1.275 1.55-.85 2.8-1.925 3.75-3.225.95-1.3 1.65-2.7 2.1-4.2.45-1.5.675-2.85.675-4.05zm17.724-25.241l.576-13.159c0-1.3.7-1.95 2.1-1.95.5 0 1.2.075 2.1.225.9.15 1.85.375 2.85.675 1 .3 1.85.675 2.55 1.125.7.45 1.05.975 1.05 1.575V77c.1-.1.25-.5.45-1.2.7-1.8 1.55-4.025 2.55-6.675 1-2.65 2.1-5.175 3.3-7.575 1.2-2.4 2.475-4.45 3.825-6.15 1.35-1.7 2.725-2.55 4.125-2.55 1.8 0 3.175.425 4.125 1.275.95.85 1.675 1.925 2.175 3.225.5 1.3.8 2.7.9 4.2.1 1.5.15 2.95.15 4.35 0 1-.1 2.65-.3 4.95-.2 2.3-.3 5.75-.3 10.35 0 2.6.25 4.95.75 7.05.5 2.1 1.5 3.15 3 3.15 1.1 0 2.1-.5 3-1.5.9-1 1.725-2.25 2.475-3.75s1.375-3.1 1.875-4.8c.5-1.7.8-3.3.9-4.8.026-.502.098-.938.215-1.307.143-2.808.522-5.823 1.135-9.043.8-4.2 2.05-8.125 3.75-11.775 1.7-3.65 3.85-6.7 6.45-9.15s5.75-3.675 9.45-3.675c1.8 0 3.5.375 5.1 1.125 1.6.75 3 1.725 4.2 2.925 1.2 1.2 2.15 2.6 2.85 4.2.7 1.6 1.1 3.25 1.2 4.95l.15 2.1c0 2.4-.4 5.025-1.2 7.875-.8 2.85-1.95 5.5-3.45 7.95-1.5 2.45-3.35 4.5-5.55 6.15-2.2 1.65-4.7 2.475-7.5 2.475-.5 0-1.125-.05-1.875-.15-.75-.1-1.475-.25-2.175-.45v4.35c0 .7.225 1.7.675 3 .45 1.3 1.125 2.575 2.025 3.825.9 1.25 2.075 2.35 3.525 3.3 1.45.95 3.225 1.425 5.325 1.425 2.9 0 5.275-.575 7.125-1.725A14.864 14.864 0 0 0 455.1 90.5c1.2-1.8 2.125-3.825 2.775-6.075a72.267 72.267 0 0 0 1.575-6.525c.3-1.4.6-2.35.9-2.85.3-.5.8-.75 1.5-.75 1.5 0 2.25.85 2.25 2.55v1.05c0 2.5-.45 5.3-1.35 8.4-.9 3.1-2.3 5.975-4.2 8.625-1.9 2.65-4.325 4.875-7.275 6.675-2.95 1.8-6.475 2.7-10.575 2.7-3.9 0-7.2-.7-9.9-2.1-2.7-1.4-4.925-3.3-6.675-5.7-1.586-2.175-2.761-4.699-3.526-7.572-.301.636-.626 1.26-.974 1.872a17.93 17.93 0 0 1-4.875 5.55c-2 1.5-4.45 2.25-7.35 2.25-4.5 0-7.375-1.625-8.625-4.875S396.9 85.65 396.9 79.25l.3-10.95c-1.5 2.1-2.725 4.425-3.675 6.975-.95 2.55-1.775 5.2-2.475 7.95a96.81 96.81 0 0 0-1.725 8.25c-.45 2.75-.925 5.375-1.425 7.875-.2.6-.975 1-2.325 1.2-1.35.2-2.325.3-2.925.3-1.8 0-3.275-.1-4.425-.3-1.15-.2-2.025-.675-2.625-1.425-.6-.75-1.05-1.9-1.35-3.45-.3-1.55-.55-3.625-.75-6.225l.795-18.166a34.554 34.554 0 0 1-1.995 2.866 21.7 21.7 0 0 1-2.625 3c-.95.9-1.925 1.75-2.925 2.55-.1 1.7-.175 2.875-.225 3.525-.05.65-.125 1.175-.225 1.575-.2 1.5-.7 3.4-1.5 5.7-.8 2.3-1.925 4.55-3.375 6.75s-3.2 4.075-5.25 5.625c-2.05 1.55-4.425 2.325-7.125 2.325-.9 0-1.925-.1-3.075-.3-1.15-.2-2.325-.475-3.525-.825-1.2-.35-2.35-.75-3.45-1.2-1.1-.45-2.05-.925-2.85-1.425-2.5-1.4-4.55-3.05-6.15-4.95-1.6-1.9-2.825-3.925-3.675-6.075a27.932 27.932 0 0 1-1.725-6.6c-.3-2.25-.45-4.425-.45-6.525 0-3.6.375-7.25 1.125-10.95.75-3.7 1.675-7.25 2.775-10.65 1.1-3.4 2.35-6.45 3.75-9.15s2.75-4.8 4.05-6.3c1.3-1.4 2.75-2.375 4.35-2.925 1.6-.55 3.05-.825 4.35-.825 1.6 0 3.2.4 4.8 1.2 1.6.8 3.15 1.8 4.65 3 1.5 1.2 2.975 2.575 4.425 4.125 1.45 1.55 2.825 3.075 4.125 4.575 1 1.1 1.75 2.875 2.25 5.325s.9 4.925 1.2 7.425c.2 1.4.35 2.9.45 4.5.1 1.6.15 3.25.15 4.95 1.5-1.2 2.7-2.475 3.6-3.825.9-1.35 1.625-2.625 2.175-3.825.55-1.2 1-2.325 1.35-3.375.35-1.05.725-1.875 1.125-2.475a2.22 2.22 0 0 1 .024-.041zM446.4 54.65c0-.8-.225-1.65-.675-2.55-.45-.9-1.275-1.35-2.475-1.35-1.8 0-3.35.95-4.65 2.85-1.3 1.9-2.375 4.075-3.225 6.525-.85 2.45-1.475 4.8-1.875 7.05-.4 2.25-.6 3.725-.6 4.425v.45c0 .9.075 1.625.225 2.175.15.55.675.825 1.575.825h.75c2 0 3.7-.75 5.1-2.25 1.4-1.5 2.525-3.3 3.375-5.4.85-2.1 1.475-4.25 1.875-6.45.4-2.2.6-4 .6-5.4v-.9z" fill="#000" fill-rule="evenodd"/></svg>